<svg width="203" height="92" viewBox="0 0 203 92" fill="none" xmlns="http://www.w3.org/2000/svg">
<path d="M47.7658 64.7882C44.56 65.528 37.7046 69.2763 35.9291 78.3511C34.1536 87.4259 28.449 90.0234 25.8186 90.1878" stroke="#34E6F6" stroke-width="2" stroke-linecap="round" stroke-linejoin="round"/>
<path d="M46.7792 16.2086C43.6556 17.195 36.4221 18.1321 32.4766 13.9892C27.5446 8.81068 15.9546 -2.2862 6.83045 3.38554C-2.29366 9.05727 0.912135 26.319 11.7624 36.6761C20.3542 44.8774 18.1739 79.8307 20.3933 84.7626C21.3815 86.9586 24.3389 88.9548 27.2981 84.0228" stroke="#34E6F6" stroke-width="2" stroke-linecap="round" stroke-linejoin="round"/>
<path d="M62.8081 9.55042C51.7112 24.3463 34.9426 28.0452 28.2844 16.2085" stroke="#34E6F6" stroke-width="2" stroke-linecap="round" stroke-linejoin="round"/>
<path d="M25.7778 53.8122C25.5004 53.8122 25.3618 53.6416 25.3618 53.3002C25.3618 53.0229 25.5004 52.8842 25.7778 52.8842C26.6738 52.8842 27.3991 52.5642 27.9538 51.9242C28.5084 51.2629 28.7858 50.1536 28.7858 48.5962V33.6842C28.7858 32.9162 28.6044 32.3616 28.2418 32.0202C27.9004 31.6576 27.2924 31.4762 26.4178 31.4762C26.1404 31.4762 26.0018 31.3269 26.0018 31.0282C26.0018 30.7296 26.1404 30.5802 26.4178 30.5802C26.6098 30.5802 27.2711 30.5909 28.4018 30.6122C29.5324 30.6336 30.8764 30.6442 32.4338 30.6442C33.1591 30.6442 33.6178 30.9216 33.8098 31.4762C33.8524 31.5829 33.9698 31.9242 34.1618 32.5002C34.3751 33.0762 34.6311 33.8016 34.9298 34.6762C35.2498 35.5509 35.5911 36.5109 35.9538 37.5562C36.3164 38.5802 36.6791 39.6042 37.0418 40.6282C37.4258 41.6522 37.7778 42.6122 38.0978 43.5082C38.4178 44.3829 38.6844 45.1189 38.8978 45.7162C39.1111 46.3136 39.2391 46.6762 39.2818 46.8042C39.3671 46.6122 39.5484 46.1429 39.8258 45.3962C40.1031 44.6282 40.4338 43.7002 40.8178 42.6122C41.2018 41.5029 41.6071 40.3509 42.0338 39.1562C42.4604 37.9616 42.8551 36.8202 43.2178 35.7322C43.6018 34.6442 43.9218 33.7269 44.1778 32.9802C44.4338 32.2122 44.5831 31.7536 44.6258 31.6042C44.8178 30.9642 45.2871 30.6442 46.0338 30.6442C47.5911 30.6442 48.8924 30.6336 49.9378 30.6122C50.9831 30.5909 51.5804 30.5802 51.7298 30.5802C52.0071 30.5802 52.1458 30.7296 52.1458 31.0282C52.1458 31.3269 52.0071 31.4762 51.7298 31.4762C50.9404 31.4762 50.3858 31.6469 50.0658 31.9882C49.7671 32.3082 49.6178 32.7776 49.6178 33.3962V50.8362C49.6178 51.5189 49.7458 52.0309 50.0018 52.3722C50.2578 52.7136 50.7698 52.8842 51.5378 52.8842C51.8151 52.8842 51.9538 53.0229 51.9538 53.3002C51.9538 53.6416 51.8151 53.8122 51.5378 53.8122C51.3244 53.8122 50.8978 53.8016 50.2578 53.7802C49.6391 53.7376 48.8391 53.7162 47.8578 53.7162C47.2391 53.7162 46.5884 53.7269 45.9058 53.7482C45.2444 53.7482 44.6684 53.7589 44.1778 53.7802C43.6871 53.8016 43.3671 53.8122 43.2178 53.8122C42.8978 53.8122 42.7378 53.6416 42.7378 53.3002C42.7378 53.0229 42.8978 52.8842 43.2178 52.8842C44.1991 52.8842 44.8711 52.7349 45.2338 52.4362C45.5964 52.1162 45.7778 51.5829 45.7778 50.8362V32.0202C44.3911 36.0522 43.2178 39.4122 42.2578 42.1002C41.3191 44.7882 40.5618 46.9216 39.9858 48.5002C39.4311 50.0576 39.0258 51.1669 38.7698 51.8282C38.5351 52.4896 38.4178 52.8202 38.4178 52.8202C38.3538 52.9909 38.2898 53.0976 38.2258 53.1402C38.1831 53.1616 38.1084 53.1722 38.0018 53.1722C37.8311 53.1722 37.7031 53.0762 37.6178 52.8842C37.5964 52.8629 37.4684 52.5429 37.2338 51.9242C36.9991 51.2842 36.6791 50.4522 36.2738 49.4282C35.8898 48.4042 35.4524 47.2629 34.9618 46.0042C34.4711 44.7456 33.9698 43.4656 33.4578 42.1642C32.9671 40.8416 32.4871 39.5829 32.0178 38.3882C31.5484 37.1722 31.1324 36.1056 30.7698 35.1882C30.4071 34.2496 30.1404 33.5456 29.9698 33.0762V48.5642C29.9698 50.1856 30.2898 51.3162 30.9298 51.9562C31.5698 52.5749 32.3164 52.8842 33.1698 52.8842C33.4898 52.8842 33.6498 53.0229 33.6498 53.3002C33.6498 53.6416 33.4898 53.8122 33.1698 53.8122C32.9564 53.8122 32.5191 53.8016 31.8578 53.7802C31.2178 53.7376 30.4284 53.7162 29.4898 53.7162C28.3804 53.7162 27.5378 53.7376 26.9618 53.7802C26.4071 53.8016 26.0124 53.8122 25.7778 53.8122ZM61.3998 54.1962C58.9678 54.1962 57.0584 53.5349 55.6718 52.2122C54.3064 50.8896 53.6238 48.9909 53.6238 46.5162C53.6238 44.9589 53.9331 43.5616 54.5518 42.3242C55.1704 41.0869 56.0451 40.1056 57.1758 39.3802C58.3278 38.6549 59.6611 38.2922 61.1758 38.2922C62.3278 38.2922 63.3304 38.5162 64.1838 38.9642C65.0371 39.4122 65.7411 39.9989 66.2958 40.7242C66.8504 41.4496 67.2664 42.2389 67.5438 43.0922C67.8211 43.9242 67.9598 44.7456 67.9598 45.5562C67.9598 45.8976 67.7464 46.0682 67.3198 46.0682H57.3998C57.3571 47.6896 57.4958 48.9589 57.8158 49.8762C58.1571 50.7936 58.6584 51.4336 59.3198 51.7962C59.9811 52.1589 60.7811 52.3402 61.7198 52.3402C62.8078 52.3402 63.7784 52.1056 64.6318 51.6362C65.5064 51.1669 66.2211 50.5802 66.7758 49.8762C67.0104 49.5989 67.2771 49.5562 67.5758 49.7482C67.8744 49.9402 67.9171 50.1962 67.7038 50.5162C67.2771 51.1562 66.7864 51.7536 66.2318 52.3082C65.6984 52.8629 65.0371 53.3216 64.2478 53.6842C63.4798 54.0256 62.5304 54.1962 61.3998 54.1962ZM57.4638 44.8202H64.1198C64.1624 43.7962 64.0878 42.8789 63.8958 42.0682C63.7251 41.2576 63.4158 40.6176 62.9678 40.1482C62.5411 39.6789 61.9224 39.4442 61.1118 39.4442C60.0878 39.4442 59.2878 39.9349 58.7118 40.9162C58.1358 41.8762 57.7198 43.1776 57.4638 44.8202ZM70.722 53.8122C70.3807 53.8122 70.21 53.6309 70.21 53.2682C70.21 52.9269 70.3807 52.7562 70.722 52.7562C71.5327 52.7562 72.0553 52.6069 72.29 52.3082C72.546 51.9882 72.674 51.5082 72.674 50.8682V41.6202C72.674 40.9802 72.546 40.5109 72.29 40.2122C72.0553 39.8922 71.5327 39.7322 70.722 39.7322C70.3807 39.7322 70.21 39.5509 70.21 39.1882C70.21 38.8469 70.3807 38.6762 70.722 38.6762C70.8713 38.6762 71.2447 38.6869 71.842 38.7082C72.4393 38.7082 73.154 38.7189 73.986 38.7402C74.8393 38.7616 75.714 38.7722 76.61 38.7722C77.4847 38.7722 78.37 38.7616 79.266 38.7402C80.1833 38.7189 80.962 38.7082 81.602 38.7082C82.242 38.6869 82.5833 38.6762 82.626 38.6762C82.882 38.6762 83.0633 38.7189 83.17 38.8042C83.2767 38.8682 83.3407 39.0282 83.362 39.2842C83.362 39.4336 83.362 39.7109 83.362 40.1162C83.3833 40.5002 83.394 40.9162 83.394 41.3642C83.394 41.8122 83.394 42.2176 83.394 42.5802C83.4153 42.9216 83.426 43.1242 83.426 43.1882C83.426 43.4656 83.266 43.6469 82.946 43.7322C82.626 43.8176 82.402 43.7429 82.274 43.5082C82.0393 42.9962 81.7513 42.4522 81.41 41.8762C81.0687 41.3002 80.642 40.8202 80.13 40.4362C79.618 40.0309 78.9887 39.8282 78.242 39.8282H77.314C76.866 39.8282 76.546 39.9349 76.354 40.1482C76.1833 40.3616 76.098 40.7136 76.098 41.2042V50.8682C76.098 51.5082 76.2047 51.9882 76.418 52.3082C76.6527 52.6069 77.1113 52.7562 77.794 52.7562C78.1353 52.7562 78.306 52.9269 78.306 53.2682C78.306 53.6309 78.1353 53.8122 77.794 53.8122C77.6447 53.8122 77.3673 53.8016 76.962 53.7802C76.5567 53.7589 76.1193 53.7482 75.65 53.7482C75.202 53.7269 74.786 53.7162 74.402 53.7162C74.0393 53.7162 73.5913 53.7269 73.058 53.7482C72.546 53.7482 72.066 53.7589 71.618 53.7802C71.1913 53.8016 70.8927 53.8122 70.722 53.8122ZM90.455 54.1962C89.0683 54.1962 87.9163 53.8762 86.999 53.2362C86.103 52.5962 85.655 51.5296 85.655 50.0362C85.655 48.7776 86.039 47.7429 86.807 46.9322C87.5963 46.1002 88.695 45.4922 90.103 45.1082C91.511 44.7029 93.1537 44.5109 95.031 44.5322V43.2842C95.031 42.1322 94.8283 41.2256 94.423 40.5642C94.0177 39.8816 93.367 39.5402 92.471 39.5402C91.639 39.5402 91.0097 39.7002 90.583 40.0202C90.1563 40.3189 90.0497 40.7136 90.263 41.2042C90.6043 41.9296 90.5937 42.5802 90.231 43.1562C89.8683 43.7109 89.2497 43.9882 88.375 43.9882C87.8417 43.9882 87.3937 43.8176 87.031 43.4762C86.6683 43.1136 86.487 42.6122 86.487 41.9722C86.487 41.3322 86.7537 40.7349 87.287 40.1802C87.8203 39.6256 88.5457 39.1776 89.463 38.8362C90.4017 38.4736 91.4577 38.2922 92.631 38.2922C94.5723 38.2922 96.0337 38.7189 97.015 39.5722C97.9963 40.4256 98.487 41.5989 98.487 43.0922V49.8762C98.487 50.7296 98.5723 51.2842 98.743 51.5402C98.935 51.7749 99.1697 51.8922 99.447 51.8922C99.6603 51.8922 99.8417 51.8602 99.991 51.7962C100.162 51.7109 100.29 51.6256 100.375 51.5402C100.61 51.3056 100.844 51.3162 101.079 51.5722C101.186 51.6789 101.228 51.7962 101.207 51.9242C101.186 52.0522 101.132 52.1802 101.047 52.3082C100.748 52.7989 100.375 53.2149 99.927 53.5562C99.5003 53.8762 98.9777 54.0362 98.359 54.0362C97.5697 54.0362 96.8977 53.8336 96.343 53.4282C95.8097 53.0229 95.4363 52.3936 95.223 51.5402C94.839 52.2442 94.2843 52.8629 93.559 53.3962C92.855 53.9296 91.8203 54.1962 90.455 54.1962ZM92.055 52.2762C92.6737 52.2762 93.207 52.1056 93.655 51.7642C94.103 51.4016 94.4443 50.9749 94.679 50.4842C94.9137 49.9936 95.031 49.5242 95.031 49.0762V45.6522C93.3457 45.6096 91.991 45.8762 90.967 46.4522C89.943 47.0282 89.431 48.0416 89.431 49.4922C89.431 50.3242 89.591 50.9429 89.911 51.3482C90.231 51.7322 90.5937 51.9882 90.999 52.1162C91.4257 52.2229 91.7777 52.2762 92.055 52.2762ZM123.431 54.1962C121.938 54.1962 120.519 53.9509 119.175 53.4602C117.852 52.9482 116.668 52.1909 115.623 51.1882C114.599 50.1856 113.788 48.9376 113.191 47.4442C112.615 45.9509 112.327 44.2122 112.327 42.2282C112.327 40.2869 112.626 38.5696 113.223 37.0762C113.82 35.5829 114.631 34.3242 115.655 33.3002C116.7 32.2762 117.884 31.5082 119.207 30.9962C120.551 30.4629 121.97 30.1962 123.463 30.1962C124.572 30.1962 125.618 30.2816 126.599 30.4522C127.602 30.6016 128.466 30.7829 129.191 30.9962C129.916 31.1882 130.45 31.3482 130.791 31.4762C131.111 31.5829 131.271 31.7962 131.271 32.1162C131.292 32.3082 131.314 32.6069 131.335 33.0122C131.356 33.4176 131.378 33.8549 131.399 34.3242C131.42 34.7936 131.442 35.2096 131.463 35.5722C131.484 35.9349 131.495 36.1589 131.495 36.2442C131.495 36.3296 131.442 36.4256 131.335 36.5322C131.25 36.6176 131.132 36.6602 130.983 36.6602C130.962 36.6602 130.93 36.6602 130.887 36.6602C130.716 36.6602 130.567 36.6496 130.439 36.6282C130.332 36.5856 130.258 36.4789 130.215 36.3082C130.023 35.5189 129.66 34.7402 129.127 33.9722C128.594 33.2042 127.858 32.5642 126.919 32.0522C126.002 31.5402 124.839 31.2842 123.431 31.2842C122.386 31.2842 121.362 31.6682 120.359 32.4362C119.356 33.1829 118.524 34.3562 117.863 35.9562C117.202 37.5562 116.871 39.6469 116.871 42.2282C116.871 44.2122 117.074 45.8869 117.479 47.2522C117.884 48.6176 118.407 49.7269 119.047 50.5802C119.708 51.4336 120.423 52.0522 121.191 52.4362C121.959 52.8202 122.716 53.0122 123.463 53.0122C124.551 53.0122 125.49 52.8416 126.279 52.5002C127.09 52.1376 127.772 51.6789 128.327 51.1242C128.882 50.5696 129.33 49.9616 129.671 49.3002C130.012 48.6389 130.279 48.0096 130.471 47.4122C130.514 47.2416 130.61 47.1456 130.759 47.1242C130.908 47.1029 131.058 47.0922 131.207 47.0922C131.378 47.0922 131.506 47.1456 131.591 47.2522C131.698 47.3376 131.751 47.4336 131.751 47.5402C131.751 47.6042 131.74 47.8389 131.719 48.2442C131.719 48.6282 131.708 49.0869 131.687 49.6202C131.666 50.1322 131.644 50.6016 131.623 51.0282C131.602 51.4549 131.58 51.7216 131.559 51.8282C131.516 52.1482 131.303 52.4149 130.919 52.6282C130.642 52.7776 130.172 52.9802 129.511 53.2362C128.871 53.4709 128.039 53.6842 127.015 53.8762C126.012 54.0896 124.818 54.1962 123.431 54.1962ZM137.333 53.8122C137.013 53.8122 136.853 53.6309 136.853 53.2682C136.853 52.9269 137.013 52.7562 137.333 52.7562C138.165 52.7562 138.751 52.6069 139.093 52.3082C139.434 51.9882 139.605 51.5082 139.605 50.8682V41.2362C139.605 40.7242 139.519 40.3722 139.349 40.1802C139.199 39.9669 138.879 39.8602 138.389 39.8602C137.749 39.8602 137.173 40.0416 136.661 40.4042C136.17 40.7456 135.754 41.1722 135.413 41.6842C135.071 42.1749 134.794 42.6442 134.581 43.0922C134.474 43.3269 134.25 43.4229 133.909 43.3802C133.589 43.3376 133.429 43.1776 133.429 42.9002C133.429 42.8149 133.429 42.6229 133.429 42.3242C133.45 42.0042 133.461 41.6416 133.461 41.2362C133.482 40.8309 133.493 40.4469 133.493 40.0842C133.514 39.7216 133.525 39.4656 133.525 39.3162C133.525 39.0602 133.578 38.8896 133.685 38.8042C133.813 38.7189 133.994 38.6762 134.229 38.6762C134.271 38.6762 134.485 38.6869 134.869 38.7082C135.253 38.7082 135.711 38.7189 136.245 38.7402C136.778 38.7402 137.29 38.7509 137.781 38.7722C138.271 38.7722 138.645 38.7722 138.901 38.7722H143.733C144.095 38.7722 144.522 38.7722 145.013 38.7722C145.525 38.7509 146.026 38.7402 146.517 38.7402C147.007 38.7189 147.423 38.7082 147.765 38.7082C148.127 38.6869 148.33 38.6762 148.373 38.6762C148.607 38.6762 148.778 38.7189 148.885 38.8042C149.013 38.8896 149.077 39.0602 149.077 39.3162C149.077 39.4656 149.077 39.7216 149.077 40.0842C149.098 40.4469 149.109 40.8309 149.109 41.2362C149.13 41.6416 149.141 42.0042 149.141 42.3242C149.162 42.6229 149.173 42.8149 149.173 42.9002C149.173 43.1776 149.002 43.3376 148.661 43.3802C148.341 43.4229 148.127 43.3269 148.021 43.0922C147.807 42.6442 147.53 42.1749 147.189 41.6842C146.847 41.1722 146.431 40.7456 145.941 40.4042C145.45 40.0416 144.874 39.8602 144.213 39.8602C143.743 39.8602 143.423 39.9669 143.253 40.1802C143.103 40.3722 143.029 40.7242 143.029 41.2362V50.8682C143.029 51.5082 143.199 51.9882 143.541 52.3082C143.882 52.6069 144.469 52.7562 145.301 52.7562C145.621 52.7562 145.781 52.9269 145.781 53.2682C145.781 53.6309 145.621 53.8122 145.301 53.8122C145.151 53.8122 144.821 53.8016 144.309 53.7802C143.818 53.7589 143.295 53.7482 142.741 53.7482C142.186 53.7269 141.717 53.7162 141.333 53.7162C140.97 53.7162 140.501 53.7269 139.925 53.7482C139.349 53.7482 138.815 53.7589 138.325 53.7802C137.834 53.8016 137.503 53.8122 137.333 53.8122ZM158.645 54.1962C157.109 54.1962 155.775 53.8549 154.645 53.1722C153.514 52.4682 152.639 51.5189 152.021 50.3242C151.402 49.1296 151.093 47.7642 151.093 46.2282C151.093 44.6922 151.402 43.3269 152.021 42.1322C152.639 40.9376 153.514 39.9989 154.645 39.3162C155.775 38.6336 157.109 38.2922 158.645 38.2922C160.181 38.2922 161.503 38.6336 162.613 39.3162C163.743 39.9989 164.618 40.9376 165.237 42.1322C165.855 43.3269 166.165 44.6922 166.165 46.2282C166.165 47.7642 165.855 49.1296 165.237 50.3242C164.618 51.5189 163.743 52.4682 162.613 53.1722C161.503 53.8549 160.181 54.1962 158.645 54.1962ZM158.645 53.1082C159.967 53.1082 160.917 52.4789 161.493 51.2202C162.09 49.9402 162.389 48.2762 162.389 46.2282C162.389 44.2016 162.09 42.5589 161.493 41.3002C160.917 40.0202 159.967 39.3802 158.645 39.3802C157.322 39.3802 156.362 40.0202 155.765 41.3002C155.167 42.5589 154.869 44.2016 154.869 46.2282C154.869 48.2762 155.167 49.9402 155.765 51.2202C156.362 52.4789 157.322 53.1082 158.645 53.1082ZM168.565 53.8122C168.245 53.8122 168.085 53.6309 168.085 53.2682C168.085 53.1189 168.128 52.9909 168.213 52.8842C168.298 52.7562 168.416 52.6922 168.565 52.6922C169.312 52.6922 169.834 52.5536 170.133 52.2762C170.453 51.9776 170.613 51.5296 170.613 50.9322V41.5562C170.613 41.0229 170.474 40.5856 170.197 40.2442C169.92 39.9029 169.408 39.7322 168.661 39.7322C168.341 39.7322 168.181 39.5509 168.181 39.1882C168.181 38.8469 168.341 38.6762 168.661 38.6762C168.896 38.6762 169.237 38.6869 169.685 38.7082C170.133 38.7296 170.634 38.7402 171.189 38.7402H174.037C174.293 38.7402 174.485 38.7936 174.613 38.9002C174.741 38.9856 174.837 39.1136 174.901 39.2842C174.944 39.3909 175.061 39.7109 175.253 40.2442C175.445 40.7562 175.68 41.3856 175.957 42.1322C176.234 42.8789 176.522 43.6576 176.821 44.4682C177.12 45.2789 177.397 46.0469 177.653 46.7722C177.93 47.4976 178.154 48.0736 178.325 48.5002C178.496 48.0736 178.709 47.5082 178.965 46.8042C179.221 46.0789 179.498 45.3109 179.797 44.5002C180.096 43.6896 180.384 42.9216 180.661 42.1962C180.938 41.4496 181.173 40.8202 181.365 40.3082C181.557 39.7962 181.674 39.4869 181.717 39.3802C181.866 38.9536 182.176 38.7402 182.645 38.7402H184.501C184.885 38.7402 185.301 38.7402 185.749 38.7402C186.218 38.7189 186.645 38.7082 187.029 38.7082C187.434 38.6869 187.712 38.6762 187.861 38.6762C188.181 38.6762 188.341 38.8469 188.341 39.1882C188.341 39.5509 188.181 39.7322 187.861 39.7322C187.072 39.7322 186.592 39.8816 186.421 40.1802C186.25 40.4789 186.165 40.9376 186.165 41.5562V50.9322C186.165 51.5296 186.261 51.9882 186.453 52.3082C186.666 52.6069 187.168 52.7562 187.957 52.7562C188.277 52.7562 188.437 52.9269 188.437 53.2682C188.437 53.6309 188.277 53.8122 187.957 53.8122C187.808 53.8122 187.52 53.8016 187.093 53.7802C186.688 53.7589 186.25 53.7482 185.781 53.7482C185.312 53.7269 184.885 53.7162 184.501 53.7162C183.946 53.7162 183.338 53.7376 182.677 53.7802C182.016 53.8016 181.568 53.8122 181.333 53.8122C181.013 53.8122 180.853 53.6309 180.853 53.2682C180.853 52.9269 181.013 52.7562 181.333 52.7562C181.909 52.7562 182.282 52.6069 182.453 52.3082C182.645 51.9882 182.741 51.5082 182.741 50.8682V40.1482C182.741 40.0629 182.709 40.0202 182.645 40.0202C182.581 40.0202 182.538 40.0522 182.517 40.1162C182.517 40.1589 182.4 40.5002 182.165 41.1402C181.93 41.7802 181.632 42.5909 181.269 43.5722C180.906 44.5322 180.512 45.5669 180.085 46.6762C179.68 47.7642 179.296 48.8096 178.933 49.8122C178.57 50.7936 178.261 51.6149 178.005 52.2762C177.77 52.9376 177.632 53.3109 177.589 53.3962C177.482 53.6309 177.333 53.7482 177.141 53.7482C176.949 53.7482 176.8 53.6309 176.693 53.3962C176.672 53.3536 176.544 53.0229 176.309 52.4042C176.074 51.7642 175.776 50.9642 175.413 50.0042C175.05 49.0442 174.666 48.0202 174.261 46.9322C173.856 45.8442 173.461 44.8202 173.077 43.8602C172.714 42.9002 172.416 42.1216 172.181 41.5242C171.968 40.9056 171.85 40.5856 171.829 40.5642C171.808 40.5216 171.765 40.5109 171.701 40.5322C171.658 40.5322 171.637 40.5642 171.637 40.6282V50.9002C171.637 51.5189 171.808 51.9882 172.149 52.3082C172.49 52.6069 172.906 52.7562 173.397 52.7562C173.738 52.7562 173.909 52.9269 173.909 53.2682C173.909 53.6309 173.738 53.8122 173.397 53.8122C173.184 53.8122 172.896 53.8016 172.533 53.7802C172.192 53.7376 171.744 53.7162 171.189 53.7162C170.634 53.7162 170.112 53.7376 169.621 53.7802C169.152 53.8016 168.8 53.8122 168.565 53.8122Z" fill="#060606"/>
<path d="M55.6176 66.8722C54.9936 66.8722 54.4336 66.7362 53.9376 66.4642C53.4496 66.1922 53.0656 65.8122 52.7856 65.3242C52.5056 64.8282 52.3656 64.2722 52.3656 63.6562C52.3656 63.0402 52.5056 62.4882 52.7856 62.0002C53.0656 61.5122 53.4496 61.1322 53.9376 60.8602C54.4336 60.5882 54.9936 60.4522 55.6176 60.4522C56.1616 60.4522 56.6456 60.5602 57.0696 60.7762C57.5016 60.9842 57.8416 61.2922 58.0896 61.7002L57.4536 62.1322C57.2456 61.8202 56.9816 61.5882 56.6616 61.4362C56.3416 61.2762 55.9936 61.1962 55.6176 61.1962C55.1616 61.1962 54.7496 61.3002 54.3816 61.5082C54.0216 61.7082 53.7376 61.9962 53.5296 62.3722C53.3296 62.7482 53.2296 63.1762 53.2296 63.6562C53.2296 64.1442 53.3296 64.5762 53.5296 64.9522C53.7376 65.3202 54.0216 65.6082 54.3816 65.8162C54.7496 66.0162 55.1616 66.1162 55.6176 66.1162C55.9936 66.1162 56.3416 66.0402 56.6616 65.8882C56.9816 65.7362 57.2456 65.5042 57.4536 65.1922L58.0896 65.6242C57.8416 66.0322 57.5016 66.3442 57.0696 66.5602C56.6376 66.7682 56.1536 66.8722 55.6176 66.8722ZM59.7393 60.5002H60.5913V66.8122H59.7393V60.5002ZM60.1713 59.1202C59.9953 59.1202 59.8473 59.0602 59.7273 58.9402C59.6073 58.8202 59.5473 58.6762 59.5473 58.5082C59.5473 58.3482 59.6073 58.2082 59.7273 58.0882C59.8473 57.9682 59.9953 57.9082 60.1713 57.9082C60.3473 57.9082 60.4953 57.9682 60.6153 58.0882C60.7353 58.2002 60.7953 58.3362 60.7953 58.4962C60.7953 58.6722 60.7353 58.8202 60.6153 58.9402C60.4953 59.0602 60.3473 59.1202 60.1713 59.1202ZM70.0766 60.5002V66.8122H69.2966V61.8202L66.7406 66.0442H66.3566L63.8006 61.8082V66.8122H63.0206V60.5002H63.8846L66.5606 65.0482L69.2846 60.5002H70.0766ZM75.1771 66.1162C75.5691 66.1162 75.9291 66.0482 76.2571 65.9122C76.5931 65.7682 76.8771 65.5602 77.1091 65.2882L77.5891 65.8402C77.3091 66.1762 76.9611 66.4322 76.5451 66.6082C76.1291 66.7842 75.6691 66.8722 75.1651 66.8722C74.5171 66.8722 73.9411 66.7362 73.4371 66.4642C72.9331 66.1842 72.5411 65.8002 72.2611 65.3122C71.9811 64.8242 71.8411 64.2722 71.8411 63.6562C71.8411 63.0402 71.9731 62.4882 72.2371 62.0002C72.5091 61.5122 72.8811 61.1322 73.3531 60.8602C73.8251 60.5882 74.3611 60.4522 74.9611 60.4522C75.5211 60.4522 76.0251 60.5802 76.4731 60.8362C76.9291 61.0922 77.2891 61.4482 77.5531 61.9042C77.8251 62.3602 77.9691 62.8802 77.9851 63.4642L72.8011 64.4722C72.9611 64.9842 73.2491 65.3882 73.6651 65.6842C74.0891 65.9722 74.5931 66.1162 75.1771 66.1162ZM74.9611 61.1842C74.5211 61.1842 74.1251 61.2882 73.7731 61.4962C73.4291 61.6962 73.1571 61.9802 72.9571 62.3482C72.7651 62.7082 72.6691 63.1242 72.6691 63.5962C72.6691 63.7162 72.6731 63.8042 72.6811 63.8602L77.1331 62.9962C77.0371 62.4682 76.7931 62.0362 76.4011 61.7002C76.0091 61.3562 75.5291 61.1842 74.9611 61.1842ZM85.2993 60.5002V66.8122H84.4833V65.6602C84.2593 66.0442 83.9513 66.3442 83.5593 66.5602C83.1673 66.7682 82.7193 66.8722 82.2153 66.8722C81.3833 66.8722 80.7273 66.6442 80.2473 66.1882C79.7753 65.7242 79.5393 65.0482 79.5393 64.1602V60.5002H80.3913V64.0762C80.3913 64.7402 80.5553 65.2442 80.8833 65.5882C81.2113 65.9322 81.6833 66.1042 82.2993 66.1042C82.9633 66.1042 83.4873 65.9042 83.8713 65.5042C84.2553 65.0962 84.4473 64.5322 84.4473 63.8122V60.5002H85.2993ZM82.4193 59.6002C81.8753 59.6002 81.4433 59.4642 81.1233 59.1922C80.8033 58.9202 80.6393 58.5362 80.6313 58.0402H81.2433C81.2513 58.3522 81.3633 58.6042 81.5793 58.7962C81.7953 58.9802 82.0753 59.0722 82.4193 59.0722C82.7633 59.0722 83.0433 58.9802 83.2593 58.7962C83.4833 58.6042 83.5993 58.3522 83.6073 58.0402H84.2193C84.2113 58.5362 84.0433 58.9202 83.7153 59.1922C83.3953 59.4642 82.9633 59.6002 82.4193 59.6002ZM87.7237 60.5002H88.5757V63.2962H92.5477V60.5002H93.3997V66.8122H92.5477V64.0282H88.5757V66.8122H87.7237V60.5002ZM101.557 60.5002V66.8122H100.741V65.5642C100.485 65.9882 100.145 66.3122 99.7214 66.5362C99.3054 66.7602 98.8334 66.8722 98.3054 66.8722C97.7134 66.8722 97.1774 66.7362 96.6974 66.4642C96.2174 66.1922 95.8414 65.8122 95.5694 65.3242C95.2974 64.8362 95.1614 64.2802 95.1614 63.6562C95.1614 63.0322 95.2974 62.4762 95.5694 61.9882C95.8414 61.5002 96.2174 61.1242 96.6974 60.8602C97.1774 60.5882 97.7134 60.4522 98.3054 60.4522C98.8174 60.4522 99.2774 60.5602 99.6854 60.7762C100.101 60.9842 100.441 61.2922 100.705 61.7002V60.5002H101.557ZM98.3774 66.1162C98.8174 66.1162 99.2134 66.0162 99.5654 65.8162C99.9254 65.6082 100.205 65.3162 100.405 64.9402C100.613 64.5642 100.717 64.1362 100.717 63.6562C100.717 63.1762 100.613 62.7482 100.405 62.3722C100.205 61.9962 99.9254 61.7082 99.5654 61.5082C99.2134 61.3002 98.8174 61.1962 98.3774 61.1962C97.9294 61.1962 97.5254 61.3002 97.1654 61.5082C96.8134 61.7082 96.5334 61.9962 96.3254 62.3722C96.1254 62.7482 96.0254 63.1762 96.0254 63.6562C96.0254 64.1362 96.1254 64.5642 96.3254 64.9402C96.5334 65.3162 96.8134 65.6082 97.1654 65.8162C97.5254 66.0162 97.9294 66.1162 98.3774 66.1162ZM109.735 66.8722C109.111 66.8722 108.551 66.7362 108.055 66.4642C107.567 66.1922 107.183 65.8122 106.903 65.3242C106.623 64.8282 106.483 64.2722 106.483 63.6562C106.483 63.0402 106.623 62.4882 106.903 62.0002C107.183 61.5122 107.567 61.1322 108.055 60.8602C108.551 60.5882 109.111 60.4522 109.735 60.4522C110.279 60.4522 110.763 60.5602 111.187 60.7762C111.619 60.9842 111.959 61.2922 112.207 61.7002L111.571 62.1322C111.363 61.8202 111.099 61.5882 110.779 61.4362C110.459 61.2762 110.111 61.1962 109.735 61.1962C109.279 61.1962 108.867 61.3002 108.499 61.5082C108.139 61.7082 107.855 61.9962 107.647 62.3722C107.447 62.7482 107.347 63.1762 107.347 63.6562C107.347 64.1442 107.447 64.5762 107.647 64.9522C107.855 65.3202 108.139 65.6082 108.499 65.8162C108.867 66.0162 109.279 66.1162 109.735 66.1162C110.111 66.1162 110.459 66.0402 110.779 65.8882C111.099 65.7362 111.363 65.5042 111.571 65.1922L112.207 65.6242C111.959 66.0322 111.619 66.3442 111.187 66.5602C110.755 66.7682 110.271 66.8722 109.735 66.8722ZM121.729 60.4522C122.521 60.4522 123.141 60.6802 123.589 61.1362C124.045 61.5922 124.273 62.2642 124.273 63.1522V66.8122H123.421V63.2362C123.421 62.5802 123.261 62.0802 122.941 61.7362C122.629 61.3922 122.185 61.2202 121.609 61.2202C120.953 61.2202 120.437 61.4242 120.061 61.8322C119.685 62.2322 119.497 62.7882 119.497 63.5002V66.8122H118.645V63.2362C118.645 62.5802 118.485 62.0802 118.165 61.7362C117.853 61.3922 117.405 61.2202 116.821 61.2202C116.173 61.2202 115.657 61.4242 115.273 61.8322C114.897 62.2322 114.709 62.7882 114.709 63.5002V66.8122H113.857V60.5002H114.673V61.6522C114.897 61.2682 115.209 60.9722 115.609 60.7642C116.009 60.5562 116.469 60.4522 116.989 60.4522C117.517 60.4522 117.973 60.5642 118.357 60.7882C118.749 61.0122 119.041 61.3442 119.233 61.7842C119.465 61.3682 119.797 61.0442 120.229 60.8122C120.669 60.5722 121.169 60.4522 121.729 60.4522ZM129.105 66.8722C128.497 66.8722 127.949 66.7362 127.461 66.4642C126.973 66.1842 126.589 65.8002 126.309 65.3122C126.029 64.8242 125.889 64.2722 125.889 63.6562C125.889 63.0402 126.029 62.4882 126.309 62.0002C126.589 61.5122 126.973 61.1322 127.461 60.8602C127.949 60.5882 128.497 60.4522 129.105 60.4522C129.713 60.4522 130.261 60.5882 130.749 60.8602C131.237 61.1322 131.617 61.5122 131.889 62.0002C132.169 62.4882 132.309 63.0402 132.309 63.6562C132.309 64.2722 132.169 64.8242 131.889 65.3122C131.617 65.8002 131.237 66.1842 130.749 66.4642C130.261 66.7362 129.713 66.8722 129.105 66.8722ZM129.105 66.1162C129.553 66.1162 129.953 66.0162 130.305 65.8162C130.665 65.6082 130.945 65.3162 131.145 64.9402C131.345 64.5642 131.445 64.1362 131.445 63.6562C131.445 63.1762 131.345 62.7482 131.145 62.3722C130.945 61.9962 130.665 61.7082 130.305 61.5082C129.953 61.3002 129.553 61.1962 129.105 61.1962C128.657 61.1962 128.253 61.3002 127.893 61.5082C127.541 61.7082 127.261 61.9962 127.053 62.3722C126.853 62.7482 126.753 63.1762 126.753 63.6562C126.753 64.1362 126.853 64.5642 127.053 64.9402C127.261 65.3162 127.541 65.6082 127.893 65.8162C128.253 66.0162 128.657 66.1162 129.105 66.1162ZM141.186 60.5002V66.8122H140.406V61.8202L137.85 66.0442H137.466L134.91 61.8082V66.8122H134.13V60.5002H134.994L137.67 65.0482L140.394 60.5002H141.186ZM149.346 60.5002V66.8122H148.53V65.5642C148.274 65.9882 147.934 66.3122 147.51 66.5362C147.094 66.7602 146.622 66.8722 146.094 66.8722C145.502 66.8722 144.966 66.7362 144.486 66.4642C144.006 66.1922 143.63 65.8122 143.358 65.3242C143.086 64.8362 142.95 64.2802 142.95 63.6562C142.95 63.0322 143.086 62.4762 143.358 61.9882C143.63 61.5002 144.006 61.1242 144.486 60.8602C144.966 60.5882 145.502 60.4522 146.094 60.4522C146.606 60.4522 147.066 60.5602 147.474 60.7762C147.89 60.9842 148.23 61.2922 148.494 61.7002V60.5002H149.346ZM146.166 66.1162C146.606 66.1162 147.002 66.0162 147.354 65.8162C147.714 65.6082 147.994 65.3162 148.194 64.9402C148.402 64.5642 148.506 64.1362 148.506 63.6562C148.506 63.1762 148.402 62.7482 148.194 62.3722C147.994 61.9962 147.714 61.7082 147.354 61.5082C147.002 61.3002 146.606 61.1962 146.166 61.1962C145.718 61.1962 145.314 61.3002 144.954 61.5082C144.602 61.7082 144.322 61.9962 144.114 62.3722C143.914 62.7482 143.814 63.1762 143.814 63.6562C143.814 64.1362 143.914 64.5642 144.114 64.9402C144.322 65.3162 144.602 65.6082 144.954 65.8162C145.314 66.0162 145.718 66.1162 146.166 66.1162ZM159.615 60.4522C160.407 60.4522 161.027 60.6802 161.475 61.1362C161.931 61.5922 162.159 62.2642 162.159 63.1522V66.8122H161.307V63.2362C161.307 62.5802 161.147 62.0802 160.827 61.7362C160.515 61.3922 160.071 61.2202 159.495 61.2202C158.839 61.2202 158.323 61.4242 157.947 61.8322C157.571 62.2322 157.383 62.7882 157.383 63.5002V66.8122H156.531V63.2362C156.531 62.5802 156.371 62.0802 156.051 61.7362C155.739 61.3922 155.291 61.2202 154.707 61.2202C154.059 61.2202 153.543 61.4242 153.159 61.8322C152.783 62.2322 152.595 62.7882 152.595 63.5002V66.8122H151.743V60.5002H152.559V61.6522C152.783 61.2682 153.095 60.9722 153.495 60.7642C153.895 60.5562 154.355 60.4522 154.875 60.4522C155.403 60.4522 155.859 60.5642 156.243 60.7882C156.635 61.0122 156.927 61.3442 157.119 61.7842C157.351 61.3682 157.683 61.0442 158.115 60.8122C158.555 60.5722 159.055 60.4522 159.615 60.4522ZM166.992 66.8722C166.384 66.8722 165.836 66.7362 165.348 66.4642C164.86 66.1842 164.476 65.8002 164.196 65.3122C163.916 64.8242 163.776 64.2722 163.776 63.6562C163.776 63.0402 163.916 62.4882 164.196 62.0002C164.476 61.5122 164.86 61.1322 165.348 60.8602C165.836 60.5882 166.384 60.4522 166.992 60.4522C167.6 60.4522 168.148 60.5882 168.636 60.8602C169.124 61.1322 169.504 61.5122 169.776 62.0002C170.056 62.4882 170.196 63.0402 170.196 63.6562C170.196 64.2722 170.056 64.8242 169.776 65.3122C169.504 65.8002 169.124 66.1842 168.636 66.4642C168.148 66.7362 167.6 66.8722 166.992 66.8722ZM166.992 66.1162C167.44 66.1162 167.84 66.0162 168.192 65.8162C168.552 65.6082 168.832 65.3162 169.032 64.9402C169.232 64.5642 169.332 64.1362 169.332 63.6562C169.332 63.1762 169.232 62.7482 169.032 62.3722C168.832 61.9962 168.552 61.7082 168.192 61.5082C167.84 61.3002 167.44 61.1962 166.992 61.1962C166.544 61.1962 166.14 61.3002 165.78 61.5082C165.428 61.7082 165.148 61.9962 164.94 62.3722C164.74 62.7482 164.64 63.1762 164.64 63.6562C164.64 64.1362 164.74 64.5642 164.94 64.9402C165.148 65.3162 165.428 65.6082 165.78 65.8162C166.14 66.0162 166.544 66.1162 166.992 66.1162ZM177.142 60.5002V66.8122H176.29V61.2562H173.266L173.182 62.8162C173.118 64.1282 172.966 65.1362 172.726 65.8402C172.486 66.5442 172.058 66.8962 171.442 66.8962C171.274 66.8962 171.07 66.8642 170.83 66.8002L170.89 66.0682C171.034 66.1002 171.134 66.1162 171.19 66.1162C171.518 66.1162 171.766 65.9642 171.934 65.6602C172.102 65.3562 172.214 64.9802 172.27 64.5322C172.326 64.0842 172.374 63.4922 172.414 62.7562L172.522 60.5002H177.142ZM182.168 66.8722C181.56 66.8722 181.012 66.7362 180.524 66.4642C180.036 66.1842 179.652 65.8002 179.372 65.3122C179.092 64.8242 178.952 64.2722 178.952 63.6562C178.952 63.0402 179.092 62.4882 179.372 62.0002C179.652 61.5122 180.036 61.1322 180.524 60.8602C181.012 60.5882 181.56 60.4522 182.168 60.4522C182.776 60.4522 183.324 60.5882 183.812 60.8602C184.3 61.1322 184.68 61.5122 184.952 62.0002C185.232 62.4882 185.372 63.0402 185.372 63.6562C185.372 64.2722 185.232 64.8242 184.952 65.3122C184.68 65.8002 184.3 66.1842 183.812 66.4642C183.324 66.7362 182.776 66.8722 182.168 66.8722ZM182.168 66.1162C182.616 66.1162 183.016 66.0162 183.368 65.8162C183.728 65.6082 184.008 65.3162 184.208 64.9402C184.408 64.5642 184.508 64.1362 184.508 63.6562C184.508 63.1762 184.408 62.7482 184.208 62.3722C184.008 61.9962 183.728 61.7082 183.368 61.5082C183.016 61.3002 182.616 61.1962 182.168 61.1962C181.72 61.1962 181.316 61.3002 180.956 61.5082C180.604 61.7082 180.324 61.9962 180.116 62.3722C179.916 62.7482 179.816 63.1762 179.816 63.6562C179.816 64.1362 179.916 64.5642 180.116 64.9402C180.324 65.3162 180.604 65.6082 180.956 65.8162C181.316 66.0162 181.72 66.1162 182.168 66.1162ZM191.656 61.2562H188.044V66.8122H187.192V60.5002H191.656V61.2562ZM192.888 60.5002H193.74V66.8122H192.888V60.5002ZM193.32 59.1202C193.144 59.1202 192.996 59.0602 192.876 58.9402C192.756 58.8202 192.696 58.6762 192.696 58.5082C192.696 58.3482 192.756 58.2082 192.876 58.0882C192.996 57.9682 193.144 57.9082 193.32 57.9082C193.496 57.9082 193.644 57.9682 193.764 58.0882C193.884 58.2002 193.944 58.3362 193.944 58.4962C193.944 58.6722 193.884 58.8202 193.764 58.9402C193.644 59.0602 193.496 59.1202 193.32 59.1202ZM201.017 60.5002V66.8122H200.237V64.7242H198.257H198.017L196.553 66.8122H195.629L197.201 64.6042C196.713 64.4682 196.337 64.2362 196.073 63.9082C195.809 63.5802 195.677 63.1642 195.677 62.6602C195.677 61.9562 195.917 61.4202 196.397 61.0522C196.877 60.6842 197.533 60.5002 198.365 60.5002H201.017ZM196.541 62.6842C196.541 63.6202 197.137 64.0882 198.329 64.0882H200.237V61.2562H198.389C197.157 61.2562 196.541 61.7322 196.541 62.6842Z" fill="#060606"/>
</svg>
